<svg xmlns="http://www.w3.org/2000/svg" viewBox="0 0 512 512" role="img" aria-labelledby="title desc">
  <title id="title">Paper Leaderboard logo C</title>
  <desc id="desc">Abstract PL monogram with paper edge and leaderboard bars.</desc>
  <rect width="512" height="512" rx="96" fill="#f8fafc"/>
  <path d="M132 110h146c34 0 62 28 62 62v18h-56v-18c0-4-3-6-6-6H188v236h-56V110z" fill="#0f3d4c"/>
  <path d="M246 294h38c28 0 50-22 50-50V110h56v134c0 58-48 106-106 106h-38v-56z" fill="#0f766e"/>
  <rect x="312" y="276" width="26" height="78" rx="10" fill="#c59f3a"/>
  <rect x="348" y="244" width="26" height="110" rx="10" fill="#0f766e"/>
  <rect x="384" y="212" width="26" height="142" rx="10" fill="#0f3d4c"/>
</svg>
